***************************************************************

[IMG]http://www.torrentforce.org/imghost/3/greyshadow_tfbanner.png[/IMG]

***************************************************************

[IMG]http://www.torrentforce.org/imghost/4/greyshadow_facesinthecrowd.jpg[/IMG]

***************************************************************

FILM TITLE: Faces in the Crowd (2011)

***************************************************************

Genre: Horror | Thriller   

Rated R for disturbing violent content and some sexuality

Release: 7 October 2011 (Turkey)

Director: Julien Magnat

Writer: Julien Magnat (screenplay), Kelly Smith (script consultant)

Stars:  Milla Jovovich, Sarah Wayne Callies and Julian McMahon

Country: USA | France | Canada

Language: English 

Plot:
A horror-thriller centered on a woman living with "face-blindness" 
after surviving a serial killer's attack. As she lives with her 
condition, one in which facial features change each time she loses 
sight of them, the killer closes in.

IMDB Rating: 5.5/10 from 1,598 users 
 
http://www.imdb.com/title/tt1536410/ 

****************************************************************

[IMG]http://www.torrentforce.org/imghost/4/greyshadow_facesinthecrowdx2641.png[/IMG]
[IMG]http://www.torrentforce.org/imghost/4/greyshadow_facesinthecrowdx2642.png[/IMG]
[IMG]http://www.torrentforce.org/imghost/4/greyshadow_facesinthecrowdx2643.png[/IMG]
[IMG]http://www.torrentforce.org/imghost/4/greyshadow_facesinthecrowdx2644.png[/IMG]

****************************************************************

[IMG]http://www.torrentforce.org/imghost/2/greyshadow_mediainfo.png[/IMG]
General
Complete name                    : Faces In The Crowd 2011 720p BDRip x264 ac3 (mp4) [TFRG].mp4
Format                           : MPEG-4
Format profile                   : Base Media
Codec ID                         : isom
File size                        : 2.90 GiB
Duration                         : 1h 42mn
Overall bit rate                 : 4043 Kbps
Encoded date                     : UTC 2011-10-25 17:15:36
Tagged date                      : UTC 2011-10-25 17:15:36

Video
ID                               : 1
Format                           : AVC
Format/Info                      : Advanced Video Codec
Format profile                   : High@L4.1
Format settings, CABAC           : Yes
Format settings, ReFrames        : 12 frames
Codec ID                         : avc1
Codec ID/Info                    : Advanced Video Coding
Duration                         : 1h 42mn
Bit rate                         : 3401 Kbps
Maximum bit rate                 : 15.9 Mbps
Width                            : 1280 pixels
Height                           : 528 pixels
Display aspect ratio             : 2.40:1
Frame rate mode                  : Constant
Frame rate                       : 23.976 fps
Color space                      : YUV
Chroma subsampling               : 4:2:0
Bit depth                        : 8 bits
Scan type                        : Progressive
Bits/(Pixel*Frame)               : 0.210
Stream size                      : 2.44 GiB (84%)
Title                            : Faces In The Crowd AVC MPEG4 Video
Writing library                  : x264 core 118 r2085 8a62835
Encoded date                     : UTC 2011-10-24 08:15:53
Tagged date                      : UTC 2011-10-25 17:16:37
Color primaries                  : BT.709-5, BT.1361, IEC 61966-2-4, SMPTE RP177
Transfer characteristics         : BT.709-5, BT.1361
Matrix coefficients              : BT.709-5, BT.1361, IEC 61966-2-4 709, SMPTE RP177

Audio
ID                               : 2
Format                           : AC-3
Format/Info                      : Audio Coding 3
Mode extension                   : CM (complete main)
Codec ID                         : ac-3
Duration                         : 1h 42mn
Bit rate mode                    : Constant
Bit rate                         : 640 Kbps
Channel(s)                       : 6 channels
Channel positions                : Front: L C R, Side: L R, LFE
Sampling rate                    : 48.0 KHz
Bit depth                        : 16 bits
Compression mode                 : Lossy
Stream size                      : 469 MiB (16%)
Title                            : Faces In The Crowd AC3 5.1 640kbps Audio
Language                         : English
Encoded date                     : UTC 2011-10-25 17:16:21
Tagged date                      : UTC 2011-10-25 17:16:37

****************************************************************

Video Source: Faces In The Crowd 2011 BluRay 1080p AVC TrueHD5.1-CHDBits (19.4GB) 

Thanks: (chdbits.org)

****************************************************************

I provide a small sample, so please download this to check your 
compatibility first if you are unsure.

****************************************************************

7th October 2011

I am re-introducing my warning to all downloaders, please please
please use a proxy or vpn service, it is the only secure way to
keep your own ip address from being seen during downloading or
uploading/seeding, this WILL stop isp letters, as for advice to 
which one then thats simple, vpntunnel.se server based in Sweden 
is the right one to use, I have cancelled my vpn and transfered 
to a Swedish one already !!! enough said. 

****************************************************************

A big thanks to all the sites out there who care and share and
who make it possible for you to download this torrent for free.

Greetz to Westy, Ripwyn, mustang, noir, Blackjesus, MXMG, The Stig 
and all the other outstanding members of our community of file 
sharers and a special mention to our friends at 1337x.

****************************************************************